<svg id="Capa_1" enable-background="new 0 0 511.965 511.965" height="512" viewBox="0 0 511.965 511.965" width="512" xmlns="http://www.w3.org/2000/svg">
    <path d="m392.437.154h-146.458c-16.424 0-31.901 6.124-43.58 17.245l-34.55 32.894-25.272-25.31c5.273-5.893 5.094-14.939-.569-20.596-5.862-5.856-15.36-5.849-21.213.012l-86.85 86.947c-5.855 5.861-5.85 15.358.012 21.213 2.929 2.926 6.765 4.388 10.601 4.388 3.57 0 7.131-1.284 9.968-3.816l11.688 11.704 11.382 11.386-26.097 24.846c-11.709 11.147-18.425 26.642-18.425 42.51v222.011c0 47.628 40.36 86.377 89.97 86.377h269.395c49.609 0 89.97-38.748 89.97-86.376v-339.058c-.002-47.628-40.362-86.377-89.972-86.377zm-316.68 91.783 45.652-45.703c8.681 8.688 17.867 17.884 24.714 24.744l-46.798 44.554c-6.518-6.522-15.264-15.279-23.568-23.595zm376.65 333.652c0 31.086-26.902 56.376-59.97 56.376h-269.394c-33.067 0-59.97-25.291-59.97-56.377v-222.011c0-7.808 3.235-15.188 9.11-20.782l150.903-143.669c5.988-5.701 14.332-8.972 22.894-8.972h146.458c33.067 0 59.97 25.291 59.97 56.377v339.058z"/>
    <path d="m375.568 77.346h-155.547c-3.845 0-7.543 1.477-10.33 4.124l-70 66.489c-4.45 4.227-5.876 10.737-3.601 16.438 2.275 5.7 7.794 9.438 13.931 9.438h225.547c26.581 0 48.206-21.642 48.206-48.244 0-26.603-21.625-48.245-48.206-48.245zm0 66.489h-187.974l38.416-36.489h149.559c10.039 0 18.206 8.185 18.206 18.245-.001 10.059-8.168 18.244-18.207 18.244z"/>
    <path d="m383.76 208.34c-5.857-5.857-15.355-5.857-21.213 0l-92.349 92.349-92.348-92.349c-5.857-5.859-15.355-5.857-21.213 0s-5.858 15.355 0 21.213l92.349 92.349-92.349 92.349c-5.858 5.857-5.858 15.355 0 21.213 2.929 2.929 6.768 4.394 10.606 4.394 3.839 0 7.678-1.465 10.607-4.394l92.349-92.349 92.349 92.349c2.929 2.93 6.768 4.394 10.606 4.394s7.678-1.465 10.606-4.394c5.858-5.857 5.858-15.355 0-21.213l-92.349-92.349 92.349-92.349c5.858-5.858 5.858-15.356 0-21.213z"/>
</svg>